<?xml version="1.0" encoding="utf-8"?>
<!-- Generator: Adobe Illustrator 15.0.0, SVG Export Plug-In . SVG Version: 6.00 Build 0)  -->
<!DOCTYPE svg PUBLIC "-//W3C//DTD SVG 1.1//EN" "http://www.w3.org/Graphics/SVG/1.1/DTD/svg11.dtd">
<svg version="1.1" id="圖層_1" xmlns="http://www.w3.org/2000/svg" xmlns:xlink="http://www.w3.org/1999/xlink" x="0px" y="0px"
	 width="600px" height="600px" viewBox="0 0 600 600" enable-background="new 0 0 600 600" xml:space="preserve">
<path fill="none" stroke="#231815" stroke-width="3" stroke-miterlimit="10" d="M12.45,145.203l108.569,351.111
	c0,46.195,81.341,83.646,181.688,83.646c100.336,0,181.678-37.451,181.678-83.646v-0.005l108.569-351.106"/>
<path fill="#C9A063" stroke="#231815" stroke-width="3" stroke-miterlimit="10" d="M530.654,218.526
	c-53.152-27.474-135.504-45.121-227.953-45.121c-92.454,0-174.8,17.647-227.954,45.121c-12.78,6.609-23.864,13.789-33.004,21.422
	L57.8,291.854l23.708,76.684l39.51,127.779c0,46.192,81.341,83.644,181.688,83.644c100.336,0.005,181.678-37.445,181.678-83.642
	v-0.007l39.511-127.774l23.708-76.684l16.056-51.906C554.52,232.313,543.436,225.136,530.654,218.526z"/>
<path fill="#7A6A56" d="M302.701,172.965c-92.454,0-174.8,17.647-227.954,45.121c-12.779,6.609-23.862,13.788-33.001,21.42
	l0.945,3.057c47.516,38.979,146.09,65.766,260.01,65.766c113.923,0,212.495-26.789,260.01-65.766l0.945-3.057
	c-9.139-7.635-20.222-14.812-33.002-21.421C477.502,190.613,395.15,172.965,302.701,172.965z"/>
<path fill="#3E3A39" stroke="#231815" stroke-width="3" stroke-miterlimit="10" d="M342.44,502.35
	c0,24.805-20.944,44.911-46.777,44.911c-25.839,0-46.788-20.103-46.788-44.911c0-24.806,20.949-44.915,46.788-44.915
	C321.496,457.435,342.44,477.544,342.44,502.35z"/>
<path fill="#3E3A39" stroke="#231815" stroke-width="3" stroke-miterlimit="10" d="M212.957,371.836
	c0,24.805-20.95,44.911-46.784,44.911c-25.838,0-46.783-20.102-46.783-44.911c0-24.8,20.944-44.911,46.783-44.911
	C192.007,326.925,212.957,347.036,212.957,371.836z"/>
<path fill="#3E3A39" stroke="#231815" stroke-width="3" stroke-miterlimit="10" d="M370.214,376.683
	c0,24.806-20.949,44.915-46.782,44.915c-25.838,0-46.783-20.104-46.783-44.915c0-24.802,20.944-44.908,46.783-44.908
	C349.265,331.774,370.214,351.881,370.214,376.683z"/>
<path fill="#3E3A39" stroke="#231815" stroke-width="3" stroke-miterlimit="10" d="M474.47,416.747
	c0,24.811-20.944,44.916-46.778,44.916c-25.838,0-46.788-20.105-46.788-44.916c0-24.798,20.95-44.911,46.788-44.911
	C453.525,371.836,474.47,391.949,474.47,416.747z"/>
<path fill="#3E3A39" stroke="#231815" stroke-width="3" stroke-miterlimit="10" d="M504.193,333.737
	c0,15.982-13.492,28.934-30.134,28.934c-16.645,0-30.14-12.951-30.14-28.934c0-15.975,13.495-28.931,30.14-28.931
	C490.701,304.807,504.193,317.763,504.193,333.737z"/>
<path fill="#3E3A39" stroke="#231815" stroke-width="3" stroke-miterlimit="10" d="M217.526,473.414
	c0,15.982-13.492,28.934-30.134,28.934c-16.645,0-30.14-12.951-30.14-28.934c0-15.975,13.495-28.931,30.14-28.931
	C204.034,444.483,217.526,457.439,217.526,473.414z"/>
<path fill="#3E3A39" stroke="#231815" stroke-width="3" stroke-miterlimit="10" d="M441.177,507.414
	c0,15.982-13.492,28.934-30.134,28.934c-16.645,0-30.14-12.951-30.14-28.934c0-15.975,13.495-28.931,30.14-28.931
	C427.685,478.483,441.177,491.439,441.177,507.414z"/>
<path fill="#231815" stroke="#231815" stroke-width="3" stroke-miterlimit="10" d="M592.953,145.203
	c0,65.415-129.947,118.449-290.252,118.449c-160.299,0-290.251-53.032-290.251-118.449c0-65.413,129.953-118.444,290.251-118.444
	C463.006,26.759,592.953,79.791,592.953,145.203z"/>
<g>
	<path fill="#C9A063" d="M218.265,179.652c-4.211-0.205-4.318-3.603-0.589-10.109c3.67-6.41,8.618-15.622,15.295-27.832
		c6.079-11.433,10.767-19.867,14.014-25.517c-11.883,9.934-26.657,23.313-44.478,39.954c-2.159,2.008-5.284,4.831-9.539,8.461
		c-4.284,3.651-7.121,5.459-8.5,5.406c-2.447-0.095-3.007-3.692-1.628-11.057c1.643-8.347,3.988-20.593,6.971-36.028
		c-9.583,11.757-19.01,22.326-28.471,31.575c-14.54,14.248-24.985,21.145-31.253,20.837c-4.967-0.244-4.811-4.06,0.482-11.74
		c7.877-11.432,14.939-20.728,21.422-28.054c0.448,0.882,1.257,1.236,2.315,1.233c2.657-0.005,7.473-3.768,14.847-11.552
		c5.683-6.097,10.046-11.425,12.98-15.816c1.905-2.839,4.654-7.136,8.105-12.673c3.397-5.447,6.161-9.563,8.053-12.386
		c1.881-2.807,5.82-4.562,11.82-4.996c5.274-0.383,7.155,1.74,5.684,6.263c-2.447,6.712-4.831,15.544-7.443,26.911
		c-3.802,15.709-4.621,23.723-2.213,23.718c1.36-0.005,3.421-1.155,6.439-3.636c2.374-1.901,6.746-5.873,13.083-11.874
		c10.864-10.362,17.508-16.753,20.052-19.285c7.219-7.175,13.473-13.548,18.688-19.46c2.681-3.09,4.67-5.003,6.395-5.927
		c1.312-0.734,3.626-1.38,6.444-1.584c8.891-0.644,12.566,0.555,10.88,3.641c-2.272,4.153-5.962,10.314-10.973,18.581
		c-5.22,8.632-8.979,15.185-11.376,19.555c-4.884,8.896-10.86,21.637-17.938,38.677c-4.65,10.821-7.185,16.799-7.545,17.472
		C237.367,177.794,229.934,180.222,218.265,179.652z"/>
	<path fill="#C9A063" d="M419.458,146.829c-15.178,15.454-33.33,22.977-53.354,22.358c-6.346-0.195-10.781-1.584-12.702-4.626
		c-1.656-2.505-2.617-7.141-2.817-14.045c-14.135,11.657-24.629,17.194-31.507,16.984c-4.108-0.125-7.238-1.901-8.968-5.259
		c-0.868-1.202-2.057-4.711-3.549-10.451c-11.508,14.267-19.936,23.972-24.888,28.851c-11.513,11.284-21.505,16.962-29.119,16.451
		c-6.185-0.412-6.527-5.634-1.614-15.035c5.742-10.992,12.479-21.439,20.209-31.407c0.756,0.663,1.55,0.892,2.642,0.906
		c4.392,0.061,15.422-10.443,32.56-31.297c15.065-18.266,23.98-30.464,27.11-36.996c1.93-4.051,4.322-6.854,7.204-8.452
		c2.066-1.017,5.249-1.76,9.675-2.067c8.042-0.55,11.303,1.189,9.485,5.289c-0.331,0.751-4.665,6.72-12.853,18.288
		c-9.081,12.498-14.75,21.554-17.231,26.984c-4.977,10.884-3.884,16.341,3.553,16.349c8.18,0.005,19.156-8.262,32.692-24.859
		c3.144-3.655,11.547-15.229,25.015-34.168c3.646-5.157,9.641-8.176,17.971-8.725c2.106-0.137,4.212,0.297,6.327,1.303
		c2.136,1.017,2.93,2.328,2.282,4.117c-0.431,1.196-5.153,7.779-14.044,20.379c-15.816,21.993-24.283,34.388-24.985,36.211
		c-2.402,6.236-0.901,9.283,4.499,9.305c4.084,0.019,8.203-1.872,12.332-5.647c3.875-3.765,6.209-7.723,6.999-11.856
		c1.541-0.473,3.759-0.965,6.288-1c4.631-0.063,8.754,0.8,12.697,2.379c4.957,2.291,7.029,5.603,5.796,9.456
		C426.39,138.981,423.826,142.405,419.458,146.829z"/>
</g>
</svg>
