<?xml version="1.0" encoding="utf-8"?>
<!-- Generator: Adobe Illustrator 15.0.0, SVG Export Plug-In . SVG Version: 6.00 Build 0)  -->
<!DOCTYPE svg PUBLIC "-//W3C//DTD SVG 1.1//EN" "http://www.w3.org/Graphics/SVG/1.1/DTD/svg11.dtd">
<svg version="1.1" id="圖層_1" xmlns="http://www.w3.org/2000/svg" xmlns:xlink="http://www.w3.org/1999/xlink" x="0px" y="0px"
	 width="600px" height="600px" viewBox="0 0 600 600" enable-background="new 0 0 600 600" xml:space="preserve">
<g>
	<path fill="#B5B5B6" stroke="#C9CACA" stroke-miterlimit="10" d="M499.693,361.128c0,46.093-87.355,83.45-195.111,83.45
		s-195.112-37.357-195.112-83.45c0-46.086,87.356-83.446,195.112-83.446S499.693,315.042,499.693,361.128z"/>
	<path fill="#EFEFEF" stroke="#C9CACA" stroke-miterlimit="10" d="M590.607,302.926c0,67.617-128.16,122.428-286.252,122.428
		c-158.088,0-286.246-54.811-286.246-122.43c0-67.616,128.158-122.426,286.246-122.426
		C462.447,180.498,590.607,235.308,590.607,302.926z"/>
</g>
<g>
	<path fill="#C9BC9C" stroke="#231815" stroke-width="3" stroke-miterlimit="10" d="M34.919,466.87
		c-2.523,2.333-6.874,1.73-9.719-1.344l-5.778-6.247c-2.847-3.074-3.108-7.461-0.585-9.794l103.842-96.031
		c2.524-2.333,6.877-1.732,9.722,1.345l5.778,6.245c2.846,3.074,3.105,7.461,0.583,9.794L34.919,466.87z"/>
	
		<radialGradient id="SVGID_1_" cx="4613.0547" cy="-18214.4863" r="123.2079" gradientTransform="matrix(0.5534 0.3633 -0.3633 0.5534 -9026.8057 8738.4824)" gradientUnits="userSpaceOnUse">
		<stop  offset="0" style="stop-color:#FFFFFF"/>
		<stop  offset="1" style="stop-color:#FFF100"/>
	</radialGradient>
	<path fill="url(#SVGID_1_)" stroke="#6A3906" stroke-width="3" stroke-miterlimit="10" d="M74.68,274.452
		c-28.365,29.251-15,74.751,21.546,110.191c36.546,35.438,82.433,47.397,110.796,18.147c28.364-29.248,21.733-81.688-14.814-117.129
		C155.662,250.222,103.043,245.203,74.68,274.452z"/>
	<g>
		<path fill="#6A3906" stroke="#6A3906" stroke-width="3" stroke-miterlimit="10" d="M163.818,344.336
			c1.145,9.303,19.929,14.638,41.955,11.925c6.294-0.778,12.154-2.14,17.312-3.892c0.054-6.786-0.782-13.585-2.48-20.213
			c-5.248,1.006-11.145,2.149-17.443,2.927C181.138,337.798,162.673,335.027,163.818,344.336z"/>
		<path fill="#6A3906" stroke="#6A3906" stroke-width="3" stroke-miterlimit="10" d="M170.08,376.869
			c1.144,9.307,19.929,14.65,41.952,11.931c1.429-0.172,2.832-0.392,4.211-0.625c3.974-7.274,6.616-15.035,7.996-22.979
			c-4.569,0.871-9.549,1.775-14.82,2.433C187.395,370.342,168.929,367.571,170.08,376.869z"/>
	</g>
	
		<radialGradient id="SVGID_2_" cx="4655.0059" cy="-18381.3984" r="123.2076" gradientTransform="matrix(0.5534 0.3633 -0.3633 0.5534 -9026.8057 8738.4824)" gradientUnits="userSpaceOnUse">
		<stop  offset="0" style="stop-color:#FFFFFF"/>
		<stop  offset="1" style="stop-color:#FFF100"/>
	</radialGradient>
	<path fill="url(#SVGID_2_)" stroke="#6A3906" stroke-width="3" stroke-miterlimit="10" d="M158.533,197.33
		c-28.364,29.251-14.998,74.75,21.547,110.186c36.545,35.439,82.432,47.399,110.797,18.152
		c28.361-29.252,21.732-81.692-14.816-117.131C239.515,173.1,186.896,168.082,158.533,197.33z"/>
	<g>
		<path fill="#6A3906" stroke="#6A3906" stroke-width="3" stroke-miterlimit="10" d="M247.673,267.211
			c1.146,9.301,19.926,14.641,41.954,11.926c6.295-0.78,12.154-2.141,17.31-3.89c0.057-6.789-0.781-13.586-2.48-20.218
			c-5.246,1.011-11.142,2.153-17.444,2.932C264.99,260.673,246.524,257.905,247.673,267.211z"/>
		<path fill="#6A3906" stroke="#6A3906" stroke-width="3" stroke-miterlimit="10" d="M253.932,299.747
			c1.146,9.306,19.929,14.65,41.952,11.929c1.429-0.171,2.831-0.393,4.213-0.624c3.975-7.272,6.614-15.038,7.995-22.982
			c-4.57,0.875-9.549,1.779-14.819,2.434C271.25,293.218,252.784,290.448,253.932,299.747z"/>
	</g>
	
		<radialGradient id="SVGID_3_" cx="4696.3887" cy="-18556.1094" r="123.2086" gradientTransform="matrix(0.5534 0.3633 -0.3633 0.5534 -9026.8057 8738.4824)" gradientUnits="userSpaceOnUse">
		<stop  offset="0" style="stop-color:#FFFFFF"/>
		<stop  offset="1" style="stop-color:#FFF100"/>
	</radialGradient>
	<path fill="url(#SVGID_3_)" stroke="#6A3906" stroke-width="3" stroke-miterlimit="10" d="M244.905,115.684
		c-28.363,29.25-14.999,74.75,21.548,110.187c36.545,35.439,82.432,47.397,110.797,18.152
		c28.363-29.251,21.732-81.691-14.814-117.128C325.889,91.451,273.27,86.433,244.905,115.684z"/>
	<g>
		<path fill="#6A3906" stroke="#6A3906" stroke-width="3" stroke-miterlimit="10" d="M334.045,185.563
			c1.146,9.303,19.928,14.641,41.953,11.928c6.297-0.779,12.156-2.141,17.313-3.89c0.055-6.787-0.779-13.587-2.479-20.218
			c-5.248,1.008-11.145,2.152-17.443,2.93C351.361,179.028,332.898,176.259,334.045,185.563z"/>
		<path fill="#6A3906" stroke="#6A3906" stroke-width="3" stroke-miterlimit="10" d="M340.303,218.101
			c1.148,9.304,19.932,14.648,41.953,11.928c1.432-0.172,2.834-0.39,4.213-0.624c3.973-7.275,6.617-15.035,7.996-22.981
			c-4.568,0.872-9.549,1.775-14.82,2.432C357.619,211.571,339.156,208.802,340.303,218.101z"/>
	</g>
</g>
<g>
	<path fill="#C9BC9C" stroke="#231815" stroke-width="3" stroke-miterlimit="10" d="M316.502,515.654
		c-1.826,2.912-6.184,3.47-9.732,1.244l-7.211-4.519c-3.549-2.225-4.95-6.39-3.123-9.299l75.127-119.841
		c1.826-2.913,6.184-3.47,9.732-1.244l7.213,4.519c3.551,2.222,4.947,6.39,3.121,9.299L316.502,515.654z"/>
	
		<radialGradient id="SVGID_4_" cx="11158.5352" cy="-14873.9102" r="123.2014" gradientTransform="matrix(0.6292 0.2059 -0.2059 0.6292 -9696.376 7421.3789)" gradientUnits="userSpaceOnUse">
		<stop  offset="0" style="stop-color:#FFFFFF"/>
		<stop  offset="1" style="stop-color:#FFF100"/>
	</radialGradient>
	<path fill="url(#SVGID_4_)" stroke="#6A3906" stroke-width="3" stroke-miterlimit="10" d="M304.578,319.534
		c-19.73,35.649,5.064,76.072,49.605,100.725c44.537,24.653,91.955,24.199,111.686-11.447
		c19.732-35.646-0.379-84.529-44.918-109.182C376.412,274.975,324.309,283.888,304.578,319.534z"/>
	<g>
		<path fill="#6A3906" stroke="#6A3906" stroke-width="3" stroke-miterlimit="10" d="M408.885,363.683
			c3.541,8.68,23.064,8.924,43.615,0.546c5.873-2.398,11.17-5.243,15.693-8.281c-1.723-6.566-4.309-12.908-7.682-18.865
			c-4.799,2.346-10.191,4.99-16.068,7.389C423.891,352.85,405.346,355.001,408.885,363.683z"/>
		<path fill="#6A3906" stroke="#6A3906" stroke-width="3" stroke-miterlimit="10" d="M423.436,393.452
			c3.537,8.681,23.063,8.931,43.609,0.546c1.336-0.539,2.631-1.117,3.902-1.703c1.934-8.059,2.455-16.244,1.711-24.274
			c-4.182,2.04-8.754,4.212-13.668,6.226C438.441,382.625,419.895,384.777,423.436,393.452z"/>
	</g>
	
		<radialGradient id="SVGID_5_" cx="11200.5215" cy="-15040.7998" r="123.201" gradientTransform="matrix(0.6292 0.2059 -0.2059 0.6292 -9696.376 7421.3789)" gradientUnits="userSpaceOnUse">
		<stop  offset="0" style="stop-color:#FFFFFF"/>
		<stop  offset="1" style="stop-color:#FFF100"/>
	</radialGradient>
	<path fill="url(#SVGID_5_)" stroke="#6A3906" stroke-width="3" stroke-miterlimit="10" d="M365.354,223.173
		c-19.73,35.648,5.066,76.07,49.605,100.723c44.539,24.652,91.955,24.201,111.686-11.445c19.732-35.649-0.379-84.531-44.918-109.184
		C437.188,178.615,385.084,187.524,365.354,223.173z"/>
	<g>
		<path fill="#6A3906" stroke="#6A3906" stroke-width="3" stroke-miterlimit="10" d="M469.66,267.319
			c3.539,8.681,23.064,8.924,43.615,0.548c5.873-2.403,11.172-5.246,15.693-8.282c-1.723-6.569-4.305-12.91-7.682-18.868
			c-4.797,2.346-10.191,4.991-16.07,7.389C484.67,256.485,466.121,258.641,469.66,267.319z"/>
		<path fill="#6A3906" stroke="#6A3906" stroke-width="3" stroke-miterlimit="10" d="M484.211,297.091
			c3.535,8.68,23.066,8.928,43.609,0.546c1.336-0.539,2.633-1.12,3.906-1.706c1.93-8.06,2.451-16.241,1.707-24.271
			c-4.182,2.036-8.754,4.209-13.668,6.223C499.217,286.261,480.668,288.414,484.211,297.091z"/>
	</g>
	
		<radialGradient id="SVGID_6_" cx="11241.9434" cy="-15215.4883" r="123.1999" gradientTransform="matrix(0.6292 0.2059 -0.2059 0.6292 -9696.376 7421.3789)" gradientUnits="userSpaceOnUse">
		<stop  offset="0" style="stop-color:#FFFFFF"/>
		<stop  offset="1" style="stop-color:#FFF100"/>
	</radialGradient>
	<path fill="url(#SVGID_6_)" stroke="#6A3906" stroke-width="3" stroke-miterlimit="10" d="M427.381,121.785
		c-19.732,35.649,5.063,76.073,49.602,100.726c44.539,24.652,91.959,24.199,111.688-11.447c19.73-35.647-0.379-84.529-44.92-109.182
		C499.213,77.229,447.111,86.137,427.381,121.785z"/>
	<g>
		<path fill="#6A3906" stroke="#6A3906" stroke-width="3" stroke-miterlimit="10" d="M531.688,165.933
			c3.537,8.681,23.063,8.924,43.613,0.545c5.873-2.397,11.172-5.245,15.693-8.28c-1.723-6.567-4.307-12.911-7.682-18.866
			c-4.797,2.346-10.191,4.991-16.07,7.389C546.695,155.097,528.15,157.252,531.688,165.933z"/>
		<path fill="#6A3906" stroke="#6A3906" stroke-width="3" stroke-miterlimit="10" d="M546.234,195.704
			c3.537,8.68,23.066,8.93,43.613,0.545c1.334-0.54,2.629-1.117,3.904-1.704c1.93-8.058,2.451-16.243,1.705-24.272
			c-4.178,2.038-8.75,4.211-13.666,6.222C561.244,184.873,542.695,187.028,546.234,195.704z"/>
	</g>
</g>
</svg>
