<?xml version="1.0" encoding="utf-8"?>
<!-- Generator: Adobe Illustrator 15.0.0, SVG Export Plug-In . SVG Version: 6.00 Build 0)  -->
<!DOCTYPE svg PUBLIC "-//W3C//DTD SVG 1.1//EN" "http://www.w3.org/Graphics/SVG/1.1/DTD/svg11.dtd">
<svg version="1.1" id="圖層_1" xmlns="http://www.w3.org/2000/svg" xmlns:xlink="http://www.w3.org/1999/xlink" x="0px" y="0px"
	 width="600px" height="600px" viewBox="0 0 600 600" enable-background="new 0 0 600 600" xml:space="preserve">
<g>
	<g>
		<path fill="#C9A063" stroke="#6A3906" stroke-width="3" stroke-miterlimit="10" d="M303.495,211.429
			c-111.33,0-201.562-25.29-201.562-56.497V513.67c0,29.641,24.022,53.667,53.666,53.667h295.789
			c29.644,0,53.669-24.026,53.669-53.667V154.932C505.057,186.127,414.818,211.429,303.495,211.429z"/>
		<path fill="#C9A063" stroke="#6A3906" stroke-width="3" stroke-miterlimit="10" d="M303.495,98.435
			c-111.33,0-201.562,25.302-201.562,56.497c0,31.207,90.232,56.497,201.562,56.497c111.323,0,201.562-25.302,201.562-56.497
			C505.057,123.725,414.818,98.435,303.495,98.435z"/>
	</g>
	<path fill="#DAE000" stroke="#6A3906" stroke-width="3" stroke-miterlimit="10" d="M116.643,176.115
		c29.907,20.696,102.266,35.313,186.858,35.313c84.577,0,156.944-14.617,186.852-35.313
		c-29.907-20.696-102.274-35.313-186.852-35.313C218.909,140.813,146.55,155.419,116.643,176.115z"/>
	<g>
		<path fill="#C9A063" stroke="#6A3906" stroke-width="3" stroke-miterlimit="10" d="M155.599,567.476
			c-0.963,0-1.914-0.093-2.865-0.139c7.895,10.499,19.107,17.088,31.589,17.088h238.343c12.483,0,23.692-6.601,31.59-17.088
			c-0.951,0.046-1.896,0.139-2.868,0.139H155.599z"/>
	</g>
	<linearGradient id="SVGID_1_" gradientUnits="userSpaceOnUse" x1="111.7705" y1="446.1816" x2="496.2461" y2="446.1816">
		<stop  offset="0" style="stop-color:#C9A063"/>
		<stop  offset="1" style="stop-color:#B28247"/>
	</linearGradient>
	<path fill="url(#SVGID_1_)" d="M304.017,463.125c-106.184,0-192.246-25.291-192.246-56.485v22.599
		c0,31.184,86.063,56.485,192.246,56.485c106.173-0.012,192.229-25.302,192.229-56.497V406.64
		C496.246,437.834,410.189,463.125,304.017,463.125z"/>
	<linearGradient id="SVGID_2_" gradientUnits="userSpaceOnUse" x1="111.7705" y1="385.7861" x2="496.2461" y2="385.7861">
		<stop  offset="0" style="stop-color:#C9A063"/>
		<stop  offset="1" style="stop-color:#B28247"/>
	</linearGradient>
	<path fill="url(#SVGID_2_)" d="M304.017,402.729c-106.184,0-192.246-25.29-192.246-56.485v22.599
		c0,31.184,86.063,56.485,192.246,56.485c106.173-0.012,192.229-25.302,192.229-56.497v-22.587
		C496.246,377.439,410.189,402.729,304.017,402.729z"/>
	<linearGradient id="SVGID_3_" gradientUnits="userSpaceOnUse" x1="111.7705" y1="322.7695" x2="496.2461" y2="322.7695">
		<stop  offset="0" style="stop-color:#C9A063"/>
		<stop  offset="1" style="stop-color:#B28247"/>
	</linearGradient>
	<path fill="url(#SVGID_3_)" d="M304.017,339.713c-106.184,0-192.246-25.29-192.246-56.485v22.599
		c0,31.184,86.063,56.485,192.246,56.485c106.173-0.012,192.229-25.302,192.229-56.497v-22.587
		C496.246,314.423,410.189,339.713,304.017,339.713z"/>
	<g>
		<path fill="#8FC31F" stroke="#486210" stroke-width="3" stroke-miterlimit="10" d="M160.402,66.358
			C121.063,38.434,93.395,55.232,40.946,18.005c5.018,44.409,17.286,109.003,56.613,136.927
			c37.994,26.973,83.551,35.256,125.866,26.868c4.559,1.821,12.404,5.453,13.646,9.339c0.157,0.499,0.206,1.009,0.119,1.52
			c-1.027,6.044,1.183-9.339,6.45-9.095c2.877,0.139-7.332-4.605-16.72-9.873C220.315,131.938,197.595,92.762,160.402,66.358z"/>
		<path fill="#6B9217" d="M168.268,95.627c0,0-11.996,20.8,15.377,54.177c-10.099-5.766-18.411-14.014-30.98-21.984
			c-7.917-14.281-20.209-38.341-20.606-50.755c0,0-9.664,17.877,11.842,47.425c-22.813-14.919-75.087-74.456-96.422-97.112
			c0,0,49.339,75.117,104.34,110.941c-15.859-3.295-39.183-8.04-53.318-10.36c0,0,48.469,19.919,69.061,19.583
			c21.311,16.938,33.271,26.462,45.415,25.522c15.699-1.207,3.106-8.248-21.645-22.309
			C183.836,137.588,168.708,109.421,168.268,95.627z"/>
	</g>
</g>
<g>
	<path fill="#8FC31F" d="M307.055,192.623c-1.904-0.112-1.835-1.218,0.129-3.318c1.953-2.093,4.651-5.156,8.352-9.289
		c3.476-3.97,6.181-6.954,8.072-8.971c-6.222,3.387-13.918,7.927-23.062,13.489c-1.093,0.66-2.671,1.589-4.812,2.778
		s-3.542,1.769-4.205,1.729c-1.18-0.065-1.385-1.304-0.581-3.848c0.973-2.933,2.406-7.357,4.287-13.133
		c-5.146,4.248-10.103,7.984-14.994,11.184c-7.403,4.85-12.686,7.126-15.931,6.939c-2.594-0.144-2.598-1.495,0.034-4.172
		c3.979-4.05,7.631-7.397,11.038-10.049c0.238,0.35,0.67,0.508,1.232,0.53c1.401,0.062,3.945-1.265,7.876-4.097
		c3.066-2.245,5.449-4.237,7.08-5.916c1.07-1.092,2.626-2.764,4.598-4.94c1.963-2.165,3.565-3.808,4.676-4.947
		c1.103-1.127,3.265-1.726,6.46-1.657c2.779,0.058,3.653,1.048,2.666,2.911c-1.581,2.713-3.199,6.244-4.993,10.693
		c-2.491,5.931-3.176,8.892-2.002,8.942c0.665,0.029,1.714-0.346,3.284-1.189c1.229-0.652,3.527-2.018,6.889-4.107
		c5.826-3.649,9.429-5.923,10.823-6.834c3.978-2.594,7.469-4.921,10.448-7.123c1.553-1.164,2.672-1.87,3.58-2.18
		c0.693-0.252,1.86-0.425,3.223-0.396c4.262,0.09,5.858,0.725,4.767,1.91c-1.463,1.582-3.753,3.891-6.812,6.95
		c-3.147,3.142-5.404,5.498-6.84,7.054c-2.894,3.131-6.487,7.541-10.736,13.273c-2.696,3.542-4.141,5.462-4.335,5.674
		C315.692,192.216,312.28,192.918,307.055,192.623z"/>
	<path fill="#8FC31F" d="M391.222,184.805c-7.479,4.432-14.984,6.453-22.335,6.067c-2.372-0.119-3.907-0.587-4.319-1.531
		c-0.367-0.782-0.249-2.223,0.433-4.389c-6.771,3.459-11.45,5.048-14.171,4.904c-1.646-0.086-2.749-0.677-3.148-1.751
		c-0.252-0.389-0.429-1.528-0.524-3.397c-5.988,4.417-10.237,7.36-12.647,8.823c-5.553,3.347-10.074,4.994-13.252,4.799
		c-2.612-0.162-2.483-1.758,0.147-4.633c3.131-3.427,6.73-6.73,10.791-9.922c0.277,0.23,0.605,0.32,1.08,0.346
		c1.893,0.09,7.48-3.246,16.729-10.099c8.374-6.183,13.602-10.445,15.73-12.815c1.337-1.488,2.724-2.49,4.169-3.001
		c1.023-0.321,2.489-0.498,4.419-0.451c3.482,0.08,4.613,0.861,3.286,2.356c-0.243,0.277-2.853,2.375-7.748,6.388
		c-5.286,4.248-8.669,7.292-10.288,9.116c-3.205,3.596-3.316,5.433-0.29,5.566c3.293,0.144,8.6-2.375,15.996-7.667
		c1.714-1.178,6.598-4.997,14.668-11.407c2.233-1.78,5.08-2.695,8.445-2.616c0.847,0.018,1.596,0.249,2.253,0.692
		c0.663,0.436,0.753,0.937,0.219,1.567c-0.364,0.418-3.225,2.634-8.561,6.81c-9.173,7.083-14.032,10.975-14.534,11.555
		c-1.693,1.953-1.495,2.943,0.544,3.034c1.535,0.072,3.321-0.458,5.347-1.578c1.945-1.128,3.351-2.349,4.212-3.661
		c0.636-0.126,1.534-0.238,2.475-0.202c1.727,0.068,3.119,0.421,4.335,1.001c1.47,0.814,1.732,1.888,0.736,3.063
		C394.794,182.513,393.395,183.519,391.222,184.805z"/>
</g>
</svg>
