<?xml version="1.0" encoding="utf-8"?>
<!-- Generator: Adobe Illustrator 15.0.0, SVG Export Plug-In . SVG Version: 6.00 Build 0)  -->
<!DOCTYPE svg PUBLIC "-//W3C//DTD SVG 1.1//EN" "http://www.w3.org/Graphics/SVG/1.1/DTD/svg11.dtd">
<svg version="1.1" id="圖層_1" xmlns="http://www.w3.org/2000/svg" xmlns:xlink="http://www.w3.org/1999/xlink" x="0px" y="0px"
	 width="600px" height="600px" viewBox="0 0 600 600" enable-background="new 0 0 600 600" xml:space="preserve">
<g>
	<g>
		<path fill="#8FC31F" stroke="#486210" stroke-width="2" stroke-miterlimit="10" d="M310.727,72.999
			c-36.158-25.666-61.59-10.226-109.796-44.443c4.611,40.818,15.888,100.189,52.035,125.854
			c34.921,24.792,76.794,32.404,115.687,24.696c4.191,1.673,11.404,5.011,12.545,8.583c0.144,0.458,0.187,0.928,0.106,1.397
			c-0.943,5.555,1.088-8.595,5.929-8.372c2.645,0.139-6.739-4.222-15.364-9.063C365.795,133.277,344.912,97.267,310.727,72.999z"/>
		<path fill="#6B9217" d="M317.956,99.891c0,0-11.025,19.129,14.133,49.806c-9.281-5.299-16.925-12.88-28.475-20.205
			c-7.278-13.127-18.576-35.242-18.94-46.662c0,0-8.879,16.442,10.884,43.601c-20.968-13.712-69.016-68.435-88.625-89.259
			c0,0,45.349,69.042,95.902,101.969c-14.577-3.039-36.014-7.389-49.006-9.522c0,0,44.549,18.308,63.476,17.989
			c19.587,15.578,30.581,24.332,41.745,23.469c14.425-1.12,2.852-7.582-19.897-20.505
			C332.266,138.469,318.36,112.579,317.956,99.891z"/>
	</g>
	<g>
		<path fill="#8FC31F" stroke="#486210" stroke-width="2" stroke-miterlimit="10" d="M435.327,104.593
			c48.031-34.249,81.892-13.68,145.922-59.339c-6.03,54.423-20.876,133.596-68.888,167.845
			c-46.386,33.076-102.06,43.26-153.812,33.013c-5.566,2.229-15.152,6.685-16.662,11.452c-0.186,0.607-0.244,1.236-0.138,1.865
			c1.27,7.4-1.467-11.452-7.906-11.153c-3.519,0.182,8.95-5.641,20.414-12.102C362.239,185.002,389.92,136.976,435.327,104.593z"/>
		<path fill="#6B9217" d="M425.779,140.463c0,0,14.714,25.484-18.672,66.409c12.332-7.07,22.475-17.189,37.822-26.966
			c9.65-17.509,24.621-47.003,25.068-62.219c0,0,11.856,21.913-14.363,58.135c27.854-18.297,91.627-91.296,117.654-119.073
			c0,0-60.146,92.084-127.299,136.026c19.381-4.051,47.882-9.874,65.155-12.731c0,0-59.205,24.439-84.376,24.034
			c-26.017,20.782-40.613,32.459-55.467,31.317c-19.194-1.471-3.813-10.107,26.411-27.35
			C406.847,191.901,425.277,157.374,425.779,140.463z"/>
	</g>
	<g>
		<path fill="#C9A063" stroke="#6A3906" stroke-width="3" stroke-miterlimit="10" d="M25.551,314.754v133.479h0.139
			c2.938,70.897,117.104,127.923,257.614,127.923c140.506,0,254.678-57.015,257.611-127.923h0.139V314.754H25.551z"/>
		<path fill="#B28247" stroke="#6A3906" stroke-width="3" stroke-miterlimit="10" d="M25.551,317.526
			c0,72.188,115.399,130.707,257.753,130.707c142.345,0.011,257.75-58.508,257.75-130.696c0-72.188-115.404-130.706-257.75-130.706
			C140.95,186.832,25.551,245.339,25.551,317.526z"/>
		<path fill="#C9A063" d="M509.785,261.151c7.495,12.113,11.537,24.994,11.537,38.354c0,70.675-112.989,127.967-252.369,127.967
			c-99.512,0-185.566-29.218-226.651-71.646c32.138,51.939,127.803,89.622,240.832,89.622
			c139.376,0.011,252.37-57.292,252.37-127.966C535.504,297.267,526.251,278.159,509.785,261.151z"/>
		<g>
			<path fill="#C9A063" d="M192.5,351.296c-5.638-0.331-5.428-3.604,0.384-9.82c5.779-6.195,13.763-15.259,24.717-27.489
				c10.281-11.75,18.292-20.579,23.89-26.551c-18.415,10.023-41.191,23.459-68.253,39.922c-3.236,1.951-7.909,4.702-14.24,8.221
				c-6.334,3.52-10.481,5.236-12.444,5.119c-3.492-0.192-4.1-3.86-1.716-11.389c2.879-8.679,7.117-21.773,12.681-38.866
				c-15.229,12.572-29.896,23.629-44.371,33.098c-21.912,14.353-37.544,21.092-47.151,20.537c-7.677-0.427-7.688-4.426,0.102-12.348
				c11.777-11.985,22.583-21.891,32.666-29.738c0.704,1.033,1.983,1.503,3.646,1.567c4.148,0.181,11.676-3.744,23.31-12.124
				c9.074-6.644,16.127-12.54,20.953-17.509c3.167-3.23,7.773-8.179,13.606-14.619c5.811-6.409,10.551-11.271,13.84-14.641
				c3.263-3.337,9.66-5.107,19.116-4.905c8.229,0.17,10.814,3.103,7.893,8.616c-4.681,8.029-9.469,18.479-14.778,31.647
				c-7.374,17.551-9.4,26.316-5.924,26.465c1.965,0.086,5.068-1.023,9.719-3.519c3.636-1.93,10.439-5.971,20.387-12.156
				c17.242-10.801,27.905-17.53,32.032-20.228c11.772-7.677,22.103-14.565,30.922-21.08c4.596-3.444,7.906-5.535,10.59-6.452
				c2.055-0.747,5.51-1.258,9.541-1.173c12.614,0.267,17.337,2.144,14.107,5.651c-4.33,4.681-11.106,11.516-20.159,20.569
				c-9.313,9.298-15.994,16.271-20.243,20.878c-8.563,9.266-19.198,22.317-31.778,39.282c-7.973,10.482-12.249,16.165-12.825,16.795
				C218.064,350.091,207.966,352.17,192.5,351.296z"/>
			<path fill="#C9A063" d="M441.596,328.157c-22.136,13.115-44.347,19.097-66.1,17.956c-7.021-0.352-11.563-1.737-12.785-4.531
				c-1.087-2.313-0.735-6.579,1.28-12.987c-20.036,10.236-33.886,14.938-41.938,14.512c-4.867-0.256-8.135-2.004-9.322-5.182
				c-0.744-1.151-1.267-4.521-1.549-10.056c-17.722,13.072-30.298,21.785-37.432,26.114c-16.432,9.905-29.813,14.778-39.218,14.202
				c-7.731-0.479-7.347-5.203,0.437-13.712c9.267-10.141,19.919-19.919,31.935-29.366c0.822,0.683,1.792,0.949,3.2,1.024
				c5.597,0.266,22.142-9.607,49.506-29.889c24.781-18.297,40.254-30.912,46.556-37.928c3.955-4.403,8.06-7.368,12.337-8.882
				c3.027-0.949,7.372-1.472,13.078-1.333c10.305,0.234,13.65,2.548,9.724,6.973c-0.72,0.821-8.44,7.027-22.931,18.905
				c-15.642,12.572-25.655,21.582-30.447,26.978c-9.485,10.641-9.815,16.08-0.858,16.474c9.746,0.426,25.452-7.027,47.343-22.691
				c5.07-3.487,19.523-14.79,43.409-33.759c6.61-5.268,15.033-7.976,24.993-7.741c2.506,0.054,4.724,0.736,6.671,2.047
				c1.961,1.29,2.228,2.772,0.644,4.638c-1.076,1.237-9.542,7.794-25.335,20.153c-27.147,20.963-41.529,32.479-43.014,34.196
				c-5.012,5.779-4.428,8.711,1.61,8.978c4.543,0.214,9.83-1.354,15.823-4.67c5.759-3.338,9.917-6.952,12.466-10.833
				c1.882-0.374,4.541-0.704,7.325-0.598c5.107,0.202,9.226,1.247,12.826,2.964c4.351,2.41,5.13,5.588,2.181,9.063
				C452.167,321.376,448.025,324.351,441.596,328.157z"/>
		</g>
	</g>
</g>
</svg>
