<?xml version="1.0" encoding="utf-8"?>
<!-- Generator: Adobe Illustrator 15.0.0, SVG Export Plug-In . SVG Version: 6.00 Build 0)  -->
<!DOCTYPE svg PUBLIC "-//W3C//DTD SVG 1.1//EN" "http://www.w3.org/Graphics/SVG/1.1/DTD/svg11.dtd">
<svg version="1.1" id="圖層_1" xmlns="http://www.w3.org/2000/svg" xmlns:xlink="http://www.w3.org/1999/xlink" x="0px" y="0px"
	 width="600px" height="600px" viewBox="0 0 600 600" enable-background="new 0 0 600 600" xml:space="preserve">
<path fill="#DAE000" stroke="#A4A800" stroke-width="6" stroke-miterlimit="10" d="M470.249,418.816
	c0,94.033-76.223,170.25-170.247,170.25c-94.028,0-170.25-76.217-170.25-170.25c0-94.022,76.223-281.619,170.25-281.619
	C394.026,137.198,470.249,324.794,470.249,418.816z"/>
<g>
	<path fill="#8FC31F" stroke="#486210" stroke-width="6" stroke-miterlimit="10" d="M247.19,58.146
		c-24.814-17.617-42.266-7.021-75.347-30.506c3.163,28.013,10.901,68.761,35.709,86.366c23.961,17.017,52.697,22.239,79.386,16.947
		c2.875,1.152,7.826,3.446,8.608,5.891c0.1,0.318,0.129,0.636,0.074,0.965c-0.647,3.81,0.746-5.904,4.066-5.74
		c1.816,0.083-4.622-2.904-10.543-6.232C284.976,99.506,270.649,74.798,247.19,58.146z"/>
	<path fill="#6B9217" d="M252.15,76.598c0,0-7.564,13.124,9.699,34.174c-6.368-3.634-11.613-8.831-19.54-13.865
		c-4.998-9.008-12.748-24.178-12.997-32.011c0,0-6.095,11.278,7.468,29.918c-14.389-9.42-47.361-46.97-60.817-61.259
		c0,0,31.12,47.382,65.812,69.973c-10.002-2.082-24.714-5.068-33.63-6.527c0,0,30.573,12.56,43.559,12.348
		c13.442,10.678,20.983,16.688,28.648,16.1c9.899-0.765,1.958-5.209-13.654-14.077C261.97,103.07,252.43,85.3,252.15,76.598z"/>
</g>
<g>
	<path fill="#8FC31F" stroke="#486210" stroke-width="6" stroke-miterlimit="10" d="M350.449,55.618
		c32.964-23.497,56.198-9.384,100.138-40.713c-4.136,37.35-14.324,91.669-47.275,115.178
		c-31.826,22.697-70.034,29.683-105.547,22.65c-3.822,1.529-10.398,4.586-11.434,7.868c-0.128,0.412-0.167,0.847-0.097,1.27
		c0.874,5.081-1.005-7.856-5.424-7.644c-2.414,0.117,6.142-3.881,14.009-8.314C300.296,110.796,319.291,77.845,350.449,55.618z"/>
	<path fill="#6B9217" d="M343.898,80.232c0,0,10.097,17.499-12.812,45.582c8.461-4.856,15.423-11.795,25.954-18.51
		c6.621-12.019,16.893-32.258,17.202-42.701c0,0,8.135,15.041-9.858,39.902c19.117-12.56,62.878-62.658,80.739-81.72
		c0,0-41.272,63.198-87.356,93.352c13.3-2.788,32.86-6.774,44.712-8.738c0,0-40.629,16.77-57.9,16.5
		c-17.856,14.253-27.872,22.273-38.065,21.485c-13.171-1.011-2.615-6.938,18.125-18.769
		C330.907,115.536,343.556,91.839,343.898,80.232z"/>
</g>
<path fill="#DAD100" stroke="#A4A800" stroke-width="6" stroke-miterlimit="10" d="M207.95,476.064
	c0,8.843-7.159,16.005-15.994,16.005c-8.834,0-15.993-7.162-15.993-16.005c0-8.833,7.159-15.981,15.993-15.981
	C200.791,460.083,207.95,467.231,207.95,476.064z"/>
<circle fill="#DAD100" stroke="#A4A800" stroke-width="6" stroke-miterlimit="10" cx="217.748" cy="527.456" r="11.032"/>
<circle fill="#DAD100" stroke="#A4A800" stroke-width="6" stroke-miterlimit="10" cx="242.934" cy="499.513" r="11.031"/>
<path fill="#DAD100" stroke="#A4A800" stroke-width="6" stroke-miterlimit="10" d="M397.481,465.269
	c0,8.843-7.159,16.005-15.997,16.005c-8.832,0-15.994-7.162-15.994-16.005c0-8.833,7.162-15.995,15.994-15.995
	C390.322,449.273,397.481,456.436,397.481,465.269z"/>
<path fill="#DAD100" stroke="#A4A800" stroke-width="6" stroke-miterlimit="10" d="M316.695,527.68
	c0,8.83-7.158,16.004-15.997,16.004c-8.832,0-15.994-7.174-15.994-16.004c0-8.832,7.162-15.994,15.994-15.994
	C309.537,511.686,316.695,518.848,316.695,527.68z"/>
<path fill="#DAD100" stroke="#A4A800" stroke-width="6" stroke-miterlimit="10" d="M269.958,543.672
	c0,8.845-7.159,16.007-15.993,16.007c-8.833,0-15.995-7.162-15.995-16.007c0-8.83,7.162-15.992,15.995-15.992
	C262.799,527.68,269.958,534.842,269.958,543.672z"/>
<circle fill="#DAD100" stroke="#A4A800" stroke-width="6" stroke-miterlimit="10" cx="407.277" cy="516.647" r="11.031"/>
<circle fill="#DAD100" stroke="#A4A800" stroke-width="6" stroke-miterlimit="10" cx="421.434" cy="477.688" r="11.031"/>
<circle fill="#DAD100" stroke="#A4A800" stroke-width="6" stroke-miterlimit="10" cx="347.727" cy="547.165" r="11.031"/>
<circle fill="#DAD100" stroke="#A4A800" stroke-width="6" stroke-miterlimit="10" cx="361.882" cy="508.205" r="11.032"/>
</svg>
